<?xml version="1.0" standalone="no"?>
<!DOCTYPE svg PUBLIC "-//W3C//DTD SVG 20010904//EN"
 "http://www.w3.org/TR/2001/REC-SVG-20010904/DTD/svg10.dtd">
<svg version="1.0" xmlns="http://www.w3.org/2000/svg"
 width="300.000000pt" height="300.000000pt" viewBox="0 0 300.000000 300.000000"
 preserveAspectRatio="xMidYMid meet">
<metadata>
Created by potrace 1.14, written by Peter Selinger 2001-2017
</metadata>
<g transform="translate(0.000000,300.000000) scale(0.100000,-0.100000)"
fill="#000000" stroke="none">
<path d="M1040 1510 l0 -450 75 0 75 0 2 306 3 306 114 -306 113 -306 77 0 76
0 110 299 110 298 3 -298 2 -299 80 0 80 0 0 450 0 451 -106 -3 -107 -3 -121
-322 c-67 -178 -123 -323 -126 -323 -3 0 -60 145 -126 323 l-121 322 -106 3
-107 3 0 -451z"/>
</g>
</svg>
